<mxfile host="app.diagrams.net" modified="2020-08-17T12:40:19.363Z" agent="5.0 (Windows NT 10.0; Win64; x64) AppleWebKit/537.36 (KHTML, like Gecko) Chrome/84.0.4147.125 Safari/537.36" etag="i4Up14L1IF3_zNr_wrEX" version="13.6.2" type="github">
  <diagram id="FelxbSeADz3TvZLLvNMB" name="Page-1">
    <mxGraphModel dx="2170" dy="1150" grid="1" gridSize="10" guides="1" tooltips="1" connect="1" arrows="1" fold="1" page="1" pageScale="1" pageWidth="850" pageHeight="1100" math="0" shadow="0">
      <root>
        <mxCell id="0" />
        <mxCell id="1" parent="0" />
        <mxCell id="JSPvFSWKtaXnH9uZ3ogt-1" value="&lt;font style=&quot;font-size: 24px&quot;&gt;Oparator&lt;/font&gt;" style="shape=umlActor;html=1;verticalLabelPosition=bottom;verticalAlign=top;align=center;" vertex="1" parent="1">
          <mxGeometry x="90" y="420" width="80" height="180" as="geometry" />
        </mxCell>
        <mxCell id="JSPvFSWKtaXnH9uZ3ogt-2" value="" style="rounded=0;whiteSpace=wrap;html=1;" vertex="1" parent="1">
          <mxGeometry x="225" y="60" width="495" height="980" as="geometry" />
        </mxCell>
        <mxCell id="JSPvFSWKtaXnH9uZ3ogt-5" value="&lt;font style=&quot;font-size: 20px&quot;&gt;Set Time&lt;/font&gt;" style="ellipse;whiteSpace=wrap;html=1;" vertex="1" parent="1">
          <mxGeometry x="390" y="120" width="140" height="70" as="geometry" />
        </mxCell>
        <mxCell id="JSPvFSWKtaXnH9uZ3ogt-6" value="&lt;font style=&quot;font-size: 20px&quot;&gt;Set Alarm&lt;/font&gt;" style="ellipse;whiteSpace=wrap;html=1;" vertex="1" parent="1">
          <mxGeometry x="520" y="240" width="140" height="70" as="geometry" />
        </mxCell>
      </root>
    </mxGraphModel>
  </diagram>
</mxfile>
